<?xml version="1.0" encoding="iso-8859-1"?>
<!-- Generator: Adobe Illustrator 25.4.1, SVG Export Plug-In . SVG Version: 6.00 Build 0)  -->
<svg version="1.1" xmlns="http://www.w3.org/2000/svg" xmlns:xlink="http://www.w3.org/1999/xlink" x="0px" y="0px"
	 viewBox="0 0 600 600" enable-background="new 0 0 600 600" xml:space="preserve">
<g id="Background_x5F_Simple">
	<g>
		<path fill="#EFE6D9" d="M470.9505615,206.5900726c0,0-14.0215149,14.4738159-10.8553467,16.7353516
			c3.1661377,2.2615356,24.4245605-12.2122803,52.0152588-28.9476318c27.5907593-16.7353516,38.446106-32.1137848-8.14151-9.0461426
			c0,0-8.14151-18.5445709-25.3291931-8.14151C461.4521179,187.5931854,470.9505615,206.5900726,470.9505615,206.5900726z"/>
		<g>
			<path fill="#EFE6D9" d="M195.895752,151.0919037c11.5922394-28.2453461,37.3300629-51.301445,67.5464783-55.6772156
				s63.3569031,12.4954376,74.1524048,41.0547943c5.0308838-9.7884445,12.7428589-18.1820297,22.0712585-24.0219421
				c4.5113525-2.8242722,9.5706787-5.1023026,14.8926392-5.1770248
				c11.4410706-0.1606522,21.3864136,11.8515701,19.0935974,23.0617142
				c11.8692932-5.5849838,24.9981384-8.4308701,38.1125488-8.3927612
				c8.150238,0.0236816,11.5400391,10.4653168,4.9921875,15.3184052
				c-7.8066711,5.786087-16.8242798,10.2593384-25.5687561,14.6148376
				c-85.9213867,42.7961731-168.0970764,93.1091766-245.2810364,150.1760864
				c-7.7073975,5.6985474-16.4680023,11.7718811-25.9651794,10.4751892
				c8.7255096-14.4082336,20.0287018-27.2503052,33.2126617-37.7343445
				c-5.4878387,1.1401367-10.9756622,2.2802429-16.4634857,3.4203796c-1.4733582,0.3060913-3.0323334,0.6078796-4.4555359,0.1190491
				c-1.4596252-0.5013428-2.5322571-1.7618408-3.3065338-3.0968933c-5.075531-8.7515564,0.4353027-19.7957306,6.8437347-27.624054
				c8.0911865-9.8839264,17.8181305-18.4255981,28.6647186-25.1717834
				C184.4374542,222.4363403,187.00354,172.7584534,195.895752,151.0919037z"/>
		</g>
	</g>
</g>
<g id="Layer_x5F_Ground">
	<g>
		<path fill="#EFE6D9" d="M232.0584717,423.5111084c-50.8749084-4.6416626-102.6146088,0.3800049-151.6473694,14.7183838
			c-22.1806564,6.4861755-46.2725105,17.2362976-54.1360855,38.9668274
			c-0.7810173,2.1583252-1.3780746,4.5372314-0.6818409,6.7243652c1.2816792,4.0262146,6.1188183,5.5160828,10.2858849,6.2151184
			c17.9404488,3.0095215,36.2698402,2.4334412,54.4430656,1.62677c42.2853317-1.8769531,84.5173569-4.9544373,126.6280899-9.2275085
			c-12.1627655,0.687439-24.2075043,3.3805237-35.5146942,7.9120789c-4.6373749,1.85849-4.8468781,8.4216003-0.2908325,10.471405
			c5.2559204,2.3646545,11.3081055,3.4582214,17.0657349,4.3435974
			c75.2267456,11.5679321,151.6507874,15.3346558,227.6504822,11.2201538
			c42.6471558-2.3088989,87.6031494-8.0302124,121.397522-34.1464233
			c8.6470337-6.6824036,16.9736938-18.1400452,11.5592651-27.6326904
			c-3.5692749-6.2576599-11.4707031-8.2804565-18.5296631-9.7189941
			c-13.5592041-2.7632141-27.1184692-5.5264282-40.6776733-8.2896423
			c21.1627197-0.0466309,42.3184204-2.7478333,62.8132935-8.0229492c1.3021851-0.335144,2.526062-0.9880371,3.4267578-1.9863892
			c3.4916992-3.8703918-0.2546387-8.4935303-3.8868408-11.0690308
			c-11.7302246-8.3176575-26.0303345-12.0559998-40.0811768-15.1147766
			c-46.2815857-10.0752869-93.6660767-14.5081787-141.0191345-15.5961914
			c-54.3609009-1.2490234-109.6418762,2.045166-161.0401306,19.7901917
			c0.4407349,6.5441895,7.1078186,11.9715271,13.6053162,11.0753784L232.0584717,423.5111084z"/>
		<path fill="#EFE6D9" d="M515.3724365,360.8335266c-15.7685242-2.3529358-32.0565491-1.1558228-47.3116455,3.4771729
			c-1.4866638,0.4515076-3.0305786,0.9763184-4.0943604,2.1087341s-1.4433594,3.0619202-0.413208,4.2250061
			c0.6099243,0.6886292,1.5503845,0.962616,2.4404297,1.1950378c26.1159363,6.8194885,53.6757202,5.0567017,80.4508667,1.6448669
			c2.2572632-0.2876282,5.1002808-1.1807251,5.2173462-3.4532471c0.1055908-2.0507812-2.1707764-3.3083801-4.1160278-3.9663086
			c-5.3416138-1.8067017-10.9019775-2.9656067-16.5206299-3.4432373L515.3724365,360.8335266z"/>
		<path opacity="0.2" d="M165.0986786,431.4628601c-75.6600342,4.2000122-99.3599854,18-75.4400024,22.0999756
			c23.9299927,4.1000366,129.6799927,6.1600342,151.3300171-7.5199585
			C262.6386414,432.3728333,197.9086761,429.632843,165.0986786,431.4628601z M124.5286713,447.1128235
			c-11.3900146,0.7600098-18.3300171-3.1699829-3.9500122-4.5599976
			C137.8986664,440.882843,135.9286957,446.3528748,124.5286713,447.1128235z"/>
		<path opacity="0.2" d="M271.0661621,447.1847534c-30.1753235,1.3578796-33.9559937,15.4966736,3.6463013,13.2177734
			C312.3147278,458.1235962,316.6446838,445.1336975,271.0661621,447.1847534z"/>
		<g opacity="0.2">
			<path d="M251.2295837,472.6653442c-39.3260803,2.2312622-29.3809814,18.3236084,12.6369934,16.4280701
				S295.7749329,470.1379395,251.2295837,472.6653442z"/>
			<path d="M486.6895752,407.5878601c-56.6003418,3.2113647-42.2867737,26.372406,18.1878662,23.6442261
				S550.8017578,403.9502869,486.6895752,407.5878601z"/>
			<path d="M324.7742004,491.8712769c-17.3461304-0.1508484-10.4830322,8.4320068,3.1905212,8.4320068
				S350.9818726,492.0991516,324.7742004,491.8712769z"/>
			<path d="M52.012001,475.0431824c-15.7710876,0.4442444-4.5578499,10.2551575,4.5578537,8.2041321
				S68.1923752,474.5874023,52.012001,475.0431824z"/>
			<path d="M75.0291595,476.866333c-9.6833878,0.6247253-1.823143,5.4694214,2.051033,4.5578308
				C80.954361,480.5126038,82.0938263,476.4105225,75.0291595,476.866333z"/>
			<path d="M66.2932739,467.9025574c-4.7185326,0.3538818-1.3673553,1.8231201,2.278923,2.1269836
				C72.218483,470.3334045,72.3704071,467.4467468,66.2932739,467.9025574z"/>
			<path d="M308.5938416,498.7080383c-5.2394409,0.2495117-3.9501343,3.3424377,2.5827942,3.1904907
				C317.7095337,501.7466125,314.974823,498.4041748,308.5938416,498.7080383z"/>
			<path d="M508.35849,463.1862183c-17.3461609-0.1508179-10.4830627,8.4320374,3.1904907,8.4320374
				S534.5661621,463.4141235,508.35849,463.1862183z"/>
			<path d="M492.1781006,470.0230103c-5.2394409,0.2494812-3.9501343,3.3424072,2.5827942,3.1904907
				S498.5591125,469.7191467,492.1781006,470.0230103z"/>
		</g>
	</g>
</g>
<g id="Layer_x5F_Character_1">
	<g id="right_arm">
		<g>
			<g>
				<path fill="#FFB68D" d="M256.8657532,349.9870911c0,0-7.2742462,15.1190491-8.8432007,15.546936
					s-14.5484924-11.1253357-14.5484924-11.1253357l1.1410522-8.5579224l9.9842682-4.992157L256.8657532,349.9870911z"/>
				<path opacity="0.3" d="M256.8657532,349.9870911c0,0-7.2742462,15.1190491-8.8432007,15.546936
					s-14.5484924-11.1253357-14.5484924-11.1253357l1.1410522-8.5579224l9.9842682-4.992157L256.8657532,349.9870911z"/>
			</g>
			<path fill="#FFB68D" d="M295.1599731,322.1499634c0.0400391,1.5200195-0.4699707,3.0100098-1.0499878,4.4100342
				C293,329.25,291.5700073,331.8699951,289.4099731,333.8200073c-1.9799805,1.789978-4.4699707,2.8999634-6.9099731,3.9799805
				c-8.1699829,3.6199951-15.9299927,9.3200073-24.1099854,12.9400024
				c-1.7000122,0.7600098-3.4800415,1.5299683-5.3400269,1.4500122c-3.9599609-0.1600342-6.7099609-3.960022-8.3399658-7.5700073
				c-0.4100342-0.9199829-0.8000488-1.9400024-0.6100464-2.9299927c0.2300415-1.1900024,1.2300415-2.0499878,2.1700439-2.8200073
				c0.0299683-0.0200195,0.0499878-0.0400391,0.0799561-0.0700073c8.710022-7.1500244,17.0400391-16.3400269,25.7600098-23.4799805
				c2.1099854-1.7300415,4.4899902-3.5599976,7.2200317-3.4299927l4.6499634,0.2699585
				c0.8000488,0.1500244,1.5,0.3800049,2.1400146,0.6699829c1.5700073,0.6900024,2.8400269,1.6900024,4.5499878,2.6800537
				C293.0800171,316.9199829,295.0700073,319.3599854,295.1599731,322.1499634z"/>
			<path opacity="0.3" d="M295.1599731,322.1499634c0.0400391,1.5200195-0.4699707,3.0100098-1.0499878,4.4100342
				C293,329.25,291.5700073,331.8699951,289.4099731,333.8200073c-1.9799805,1.789978-4.4699707,2.8999634-6.9099731,3.9799805
				c-8.1699829,3.6199951-15.9299927,9.3200073-24.1099854,12.9400024
				c-1.7000122,0.7600098-3.4800415,1.5299683-5.3400269,1.4500122c-2.8200073-0.1100464-5.0199585-2.0700073-6.6400146-4.4899902
				c1.4200439-0.460022,2.6900024-1.0100098,3.7000122-1.6400146c7.7399902-4.8099976,17.4400024-13.9700317,17.4400024-13.9700317
				h-0.0199585c3.8299561-2.75,7.4099731-5.9199829,10.8399658-9.1699829c3.0999756-2.9299927,6.2299805-6.1900024,7.75-10.0900269
				c1.5700073,0.6900024,2.8400269,1.6900024,4.5499878,2.6800537
				C293.0800171,316.9199829,295.0700073,319.3599854,295.1599731,322.1499634z"/>
		</g>
	</g>
	<g id="back_skirt">
		<path fill="#363E4F" d="M429.575592,365.9922791c0,6.8999634-15.2555847,15.1377258-21.5555725,21.3277283
			c-12.7600098,3.4599609-25.75,5.7099609-37.1400146,5.7099609c-36.3300171,0-58.5700073,5.0100098-73.9199829-8.1399536
			C281.6099854,371.7299805,290.6900024,355.75,293.5100098,353.25c0,0,0.0100098,0,0.0200195-0.0100098
			c0.7599487-0.3200073,36.6497498-20.8410339,79.929718-21.1510315
			C417.4297791,331.7689514,429.575592,352.8422546,429.575592,365.9922791z"/>
	</g>
	<g id="right_thigh">
		<g>
			<path fill="#363E4F" d="M318.0528259,343.2867126c0,0-36.3986816,18.5493164-43.398407,27.2989807
				c-6.9997559,8.7496948-1.3999634,23.7991333,11.5495605,29.0489197
				c12.9495239,5.2498169,69.9974365-14.3494568,69.9974365-14.3494568s39.3712463-37.3765869,24.3218079-52.776001
				C365.4737854,317.1097107,318.0528259,343.2867126,318.0528259,343.2867126z"/>
			<path opacity="0.3" d="M318.0528259,343.2867126c0,0-36.3986816,18.5493164-43.398407,27.2989807
				c-6.9997559,8.7496948-1.3999634,23.7991333,11.5495605,29.0489197
				c12.9495239,5.2498169,69.9974365-14.3494568,69.9974365-14.3494568s39.3712463-37.3765869,24.3218079-52.776001
				C365.4737854,317.1097107,318.0528259,343.2867126,318.0528259,343.2867126z"/>
		</g>
	</g>
	<g id="right_foot">
		<g>
			<path fill="#363E4F" d="M462.9851074,419.9463196c0,8.710022-5.4199829,14.3200073-14.3200073,6.5800171
				c-2.1199951-1.8499756-4.5-4.0300293-6.9599609-6.3499756c-7.8900146-7.4100342-16.7200317-16.1900024-21.2900391-19.5800171
				c-6-4.4500122-8.1300049-13.9299927-3.0999756-16.25c0,0,2.1699829-1.5700073,6.2600098-2.9000244
				c5.4499512-1.7699585,14.3299561-3.1300049,26.0599976,0.1900024c0,0,3.4799805,4.0599976,3.4799805,5.2200317
				l-7.7399902,0.5799561c0,0,6.9599609,4.6500244,9.289978,6.9700317
				C456.9851074,396.7263489,462.9851074,411.2363586,462.9851074,419.9463196z"/>
			<path fill="#FFB68D" d="M441.7250977,420.1763611c-0.0100098,0-0.0100098,0-0.0199585,0
				c-7.8900146-7.4100342-16.7200317-16.1900024-21.2900391-19.5800171c-6-4.4500122-8.1300049-13.9299927-3.0999756-16.25
				c0,0,2.1699829-1.5700073,6.2600098-2.9000244c5.7099609,0.460022,11.0799561,3.9899902,16.5799561,12.5700073
				C447.8751221,406.0463562,450.2250977,418.9963074,441.7250977,420.1763611z"/>
		</g>
	</g>
	<g id="right_calf">
		<g>
			<g>
				<path fill="#FFB68D" d="M432.2883301,393.1444397c0.0199585,0.4299927,0.0099487,0.8800049-0.0200195,1.3499756
					c-0.5900269,8.7700195-11.1099854,8.1900024-11.1099854,8.1900024s-43.9800415,1.4199829-79.8500366,3.7999878
					c-12.9699707,0.8500366-24.8699951,1.8400269-33.2600098,2.9199829
					c-31.5599976,4.0900269-36.8199463-17.8299561-36.5299683-29.5199585c0.0200195-0.7600098,0.0899658-1.5,0.2299805-2.2200317
					c1.9400024-10.4199829,15.8099976-17.0700073,39.2300415-17.0700073c9.9499512,0,23.2999878,1.6900024,37.2699585,4.1100464
					c0.0300293,0,0.0499878,0.0100098,0.0800171,0.0100098c6.6300049,1.1599731,13.3900146,2.4799805,20,3.8699951
					c26.4500122,5.5499878,50.3200073,12.1599731,52.539978,13.3499756
					C425.0083008,384.1444397,432.0383301,385.5744324,432.2883301,393.1444397z"/>
				<path opacity="0.3" d="M432.2883301,393.1444397c0.0199585,0.4299927,0.0099487,0.8800049-0.0200195,1.3499756
					c-0.5900269,8.7700195-11.1099854,8.1900024-11.1099854,8.1900024s-43.9800415,1.4199829-79.8500366,3.7999878
					c-12.9699707,0.8500366-24.8699951,1.8400269-33.2600098,2.9199829
					c-31.5599976,4.0900269-36.8199463-17.8299561-36.5299683-29.5199585c0.0200195-0.7600098,0.0899658-1.5,0.2299805-2.2200317
					c0.3699951,0.460022,0.7999878,0.8800049,1.2700195,1.2399902c3.1599731,2.4000244,7.3699951,2.7400513,11.3200073,2.9800415
					c20.6699829,1.2799683,41.3399658,2.3800049,62.0299683,3.2999878c1.25,0.0599976,2.6600342,0.0599976,3.5499878-0.8300171
					c0.9900513-0.9899902,0.8600464-2.5999756,0.6600342-3.9799805c-0.75-5.2200317-1.5-10.4400024-2.25-15.6599731
					c6.6300049,1.1599731,13.3900146,2.4799805,20,3.8699951c0.8099976,3.4599609,1.6300049,6.9099731,2.4500122,10.3599854
					c0.3399658,1.4299927,0.7199707,2.9400024,1.7799683,3.9400024c0.960022,0.8999634,2.2999878,1.2399902,3.5900269,1.539978
					C394.6082764,388.7243958,413.3883057,391.6444397,432.2883301,393.1444397z"/>
			</g>
			<g>
				<path fill="#363E4F" d="M342.4683228,404.9444275c-0.3800049,0.5200195-0.7700195,1.039978-1.1600342,1.539978
					c-12.9699707,0.8500366-24.8699951,1.8400269-33.2600098,2.9199829
					c-31.5599976,4.0900269-36.8199463-17.8299561-36.5299683-29.5199585c0.0200195-0.7600098,0.0899658-1.5,0.2299805-2.2200317
					c1.9400024-10.4199829,15.9968262-17.4524841,39.4168701-17.4524841c9.9499512,0,23.1131592,2.0724792,37.0831299,4.4925232
					c0.0400391,0.0799561,0.0800171,0.1599731,0.1099854,0.2399902
					C352.3682861,373.3544006,355.0983276,387.5744324,342.4683228,404.9444275z"/>
				<path opacity="0.3" d="M342.4683228,404.9444275c-0.3800049,0.5200195-0.7700195,1.039978-1.1600342,1.539978
					c-12.9699707,0.8500366-24.8699951,1.8400269-33.2600098,2.9199829
					c-31.5599976,4.0900269-36.8199463-17.8299561-36.5299683-29.5199585c0.0200195-0.7600098,0.0899658-1.5,0.2299805-2.2200317
					c0.3699951,0.460022,0.7999878,0.8800049,1.2700195,1.2399902c3.1599731,2.4000244,7.3699951,2.7400513,11.3200073,2.9800415
					c20.6699829,1.2799683,41.3399658,2.3800049,62.0299683,3.2999878c1.25,0.0599976,2.6600342,0.0599976,3.5499878-0.8300171
					c0.9900513-0.9899902,0.8600464-2.5999756,0.6600342-3.9799805c-0.7399902-5.1500244-1.4799805-10.289978-2.2200317-15.4299927
					C352.3682861,373.3544006,355.0983276,387.5744324,342.4683228,404.9444275z"/>
			</g>
		</g>
	</g>
	<g id="left_thigh">
		<path fill="#363E4F" d="M372.3545227,341.9622803c0,0-36.3986511,18.5493164-43.398407,27.2989807
			c-6.9997253,8.7496948-1.3999329,23.7991333,11.5495911,29.0489197
			c12.9495239,5.2498169,69.997406-14.3494568,69.997406-14.3494568s24.1491089-27.9989624,9.0996704-43.398407
			C404.5533447,325.1629028,372.3545227,341.9622803,372.3545227,341.9622803z"/>
	</g>
	<g id="hair">
		<g>
			<path fill="#363E4F" d="M265.1128845,203.7121429c0.013855-0.0051422,0.0517273,0.0123138,0.0707092,0.0210266
				c2.6025085,8.5871124,7.9250183,15.7247467,7.9250183,15.7247467s-0.8041687,28.4673767,19.7789917,30.4172516
				c20.5970154,1.9448242,25.2419739-23.2101746,38.1347961-22.1377716
				c12.8980408,1.0863342,49.489563-15.9625702,45.6394043-39.1156921
				c-0.7250366-4.3735199-2.4223328-7.804184-4.7008667-10.4684143c-9.7207336-11.4864349-30.0222473-9.197464-30.0222473-9.197464
				s-3.7049561-26.071106-33.0865173-25.7336273c-21.6532288,0.2566833-30.6820068,16.6039886-30.6820068,16.6039886
				s-15.239563-20.7230835-23.3260193-13.7582397c-8.0952759,6.9838409,1.1391449,24.0326538,1.1391449,24.0326538
				s-25.4896088-5.7167664-19.884201,10.585022C241.5196991,196.4894257,263.7500305,203.3048248,265.1128845,203.7121429z"/>
			<path opacity="0.3" d="M265.1128845,203.7121429c0.013855-0.0051422,0.0517273,0.0123138,0.0707092,0.0210266
				c2.6025085,8.5871124,7.9250183,15.7247467,7.9250183,15.7247467s-0.8041687,28.4673767,19.7789917,30.4172516
				c20.5970154,1.9448242,25.2419739-23.2101746,38.1347961-22.1377716
				c12.8980408,1.0863342,49.489563-15.9625702,45.6394043-39.1156921
				c-0.7250366-4.3735199-2.4223328-7.804184-4.7008667-10.4684143
				c-0.7890625,10.4744873-20.544342,12.6237793-30.0209961-2.8716583
				c-10.716156-17.5222931-40.178009-34.1193695-60.8288574-6.3800964
				c-20.645813,27.7530823-41.1481628,8.2422791-41.1481628,8.2422791S240.4662018,193.1819153,265.1128845,203.7121429z"/>
		</g>
	</g>
	<g id="right_upper_arm">
		<g>
			<g>
				<path fill="#FFB68D" d="M309.25,297.8099976c-4.4199829,7.3800049-8.8599854,14.789978-12.3599854,22.6499634
					c-1.2700195,2.8600464-3.4500122,7.9500122-5.8099976,10c-2.1100464,1.8400269-5.6700439,3.1300049-8.4700317,3.3000488
					c-3.9899902,0.25-7.5499878-2.3400269-9.7799683-5.8400269c-1.1000366-1.7000122-1.8800049-3.6099854-2.25-5.5200195
					c-0.7800293-4.0700073,1.2199707-8.0999756,3.1499634-11.7599487c1.6199951-3.0600586,3.2300415-6.1300049,4.8500366-9.1900024
					c2.2399902-4.2600098,4.4899902-8.5100098,6.7299805-12.7700195l5.8599854,1.960022
					C297.7600098,291.0100098,304.2000122,293.5599976,309.25,297.8099976z"/>
				<path opacity="0.3" d="M309.25,297.8099976c-4.4199829,7.3800049-8.8599854,14.789978-12.3599854,22.6499634
					c-1.2700195,2.8600464-3.4500122,7.9500122-5.8099976,10c-2.1100464,1.8400269-5.6700439,3.1300049-8.4700317,3.3000488
					c-3.9899902,0.25-7.5499878-2.3400269-9.7799683-5.8400269c1.8999634-1.6099854,3.7399902-3.289978,5.539978-5
					c3.8300171-3.6199951,7.7200317-7.7600098,8.5200195-12.9699707c0.0799561-0.5300293,0.1199951-1.0800171-0.0300293-1.5900269
					C286.5,307.1900024,285.2600098,306.5799561,284.1900024,306c-2.1300049-1.1600342-4.0499878-2.710022-5.6099854-4.5499878
					c2.2399902-4.2600098,4.4899902-8.5100098,6.7299805-12.7700195l5.8599854,1.960022
					C297.7600098,291.0100098,304.2000122,293.5599976,309.25,297.8099976z"/>
			</g>
			<path fill="#65A9DF" d="M331.0599976,255.6699829c-1.1099854,7.1900024-3.9799805,13.9899902-7.3200073,20.4400024
				c-1.6799927,3.2600098-3.5,6.460022-4.8800049,9.8599854c-2,4.9100342-3.0700073,10.1700439-5.1799927,15.0400391
				c-0.25,0.5799561-0.539978,1.1699829-1.0599976,1.5199585c-0.539978,0.3600464-1.25,0.3699951-1.9000244,0.3800049
				c-4.3999634,0.0100098-8.8199463,0.0200195-13.1699829-0.6300049c-1.3300171-0.2000122-2.6699829-0.4699707-3.9799805-0.8200073
				c-8.210022-2.1599731-15.8300171-7.1699829-19.2399902-14.8499756c-0.1300049-0.2999878-0.2600098-0.6199951-0.2300415-0.9400024
				c0.0500488-0.4799805,0.4300537-0.8499756,0.7800293-1.1799927c3.710022-3.5200195,6.2399902-8.0900269,8.6199951-12.6199951
				c4.0900269-7.7999878,7.9299927-15.7200317,11.5300293-23.75c2.2099609-4.9400024,4.3399658-9.9700317,7.4199829-14.4100342
				c0.1099854-0.1699829,0.2299805-0.3299561,0.3499756-0.5c3.2700195-4.5699463,7.7600098-8.4899902,13.1799927-9.9599609
				l5.8699951,4.3999634c3.7400513-0.2699585,6.2800293,3.710022,7.4700317,7.2700195
				C331.5300293,241.5700073,332.1400146,248.75,331.0599976,255.6699829z"/>
			<path opacity="0.3" d="M331.0599976,255.6699829c-1.1099854,7.1900024-3.9799805,13.9899902-7.3200073,20.4400024
				c-1.6799927,3.2600098-3.5,6.460022-4.8800049,9.8599854c-2,4.9100342-3.0700073,10.1700439-5.1799927,15.0400391
				c-0.25,0.5799561-0.539978,1.1699829-1.0599976,1.5199585c-0.539978,0.3600464-1.25,0.3699951-1.9000244,0.3800049
				c-4.3999634,0.0100098-8.8199463,0.0200195-13.1699829-0.6300049c-1.3300171-0.2000122-2.6699829-0.4699707-3.9799805-0.8200073
				c0.8900146-1.6300049,1.7600098-3.2699585,2.6099854-4.9199829c5.789978-11.2000122,10.9400024-24.0499878,7.3300171-36.1300049
				c-1.1699829-3.9299927-3.25-7.6300049-3.6799927-11.7099609c-0.5200195-5.0700073,1.5700073-9.9700317,2.6199951-14.9900513
				c0.1099854-0.1699829,0.2299805-0.3299561,0.3499756-0.5c3.2700195-4.5699463,7.7600098-8.4899902,13.1799927-9.9599609
				l5.8699951,4.3999634c3.7400513-0.2699585,6.2800293,3.710022,7.4700317,7.2700195
				C331.5300293,241.5700073,332.1400146,248.75,331.0599976,255.6699829z"/>
		</g>
	</g>
	<g id="body">
		<g>
			<path fill="#F7BC4B" d="M478.539978,330.6900024c-0.5700073,10.9599609-4.8699951,21.5-9.2999878,27.2600098
				c-6.4500122,8.3799438-33.2799683,21.789978-61.2199707,29.3699951
				c6.2999878-6.1900024,8.7699585-13.8000488,8.7699585-20.7000122c0-13.1500244-10.5899658-24.710022-54.5599976-24.3900146
				c-43.2799683,0.3099976-67.9400024,10.6900024-68.6999512,11.0100098
				c3.0699463-2.6400146,71.0899658-38.210022,71.0899658-38.210022s-29.0200195-10.0199585-40.3300171-18.9299927
				c-1.0199585-0.7999878-1.8899536-1.5999756-2.5899658-2.3699951
				c-6.3900146-7.1099854-9.2000122-22.2600098-10.1900024-29.2399902c-0.3300171-2.25-0.460022-3.6500244-0.460022-3.6500244
				s-5.0100098-8.7699585-5.9500122-15.6599731s0.7900391-23.4799805,27.25-35.4000244
				c5.710022-2.5799561,10.8300171-4.6199951,15.460022-6.2299805h0.0100098
				c23.5-8.1300049,34.1099854-4.6900024,44.0499878,0.2799683c11.9000244,5.9500122,37.9000244,75.8100586,37.9000244,75.8100586
				s4.6999512,4.6899414,31.6399536,18.789978C475.1599731,305.6300049,479.1900024,318.4199829,478.539978,330.6900024z"/>
			<path opacity="0.3" d="M342.1900024,255.0799561c-5.25,3.7300415-11.4500122,5.9300537-17.6799927,7.6100464
				c-4.1699829,1.1199951-8.6900024,1.9599609-13,1.7999878c-0.3300171-2.25-0.460022-3.6500244-0.460022-3.6500244
				s-5.0100098-8.7699585-5.9500122-15.6599731s0.7900391-23.4799805,27.25-35.4000244
				c5.710022-2.5799561,10.8300171-4.6199951,15.460022-6.2299805h0.0100098
				c4.9199829,5.5100098,8.1499634,12.5499878,8.8499756,19.9099731
				C357.8099976,235.539978,352.0900269,248.0499878,342.1900024,255.0799561z"/>
			<path opacity="0.3" d="M478.539978,330.6900024c-0.5700073,10.9599609-4.8699951,21.5-9.2999878,27.2600098
				c-6.4500122,8.3799438-33.2799683,21.789978-61.2199707,29.3699951
				c6.2999878-6.1900024,8.7699585-13.8000488,8.7699585-20.7000122c0-13.1500244-10.5899658-24.710022-54.5599976-24.3900146
				c-43.2799683,0.3099976-67.9400024,10.6900024-68.6999512,11.0100098
				c3.0699463-2.6400146,71.0899658-38.210022,71.0899658-38.210022s-29.0200195-10.0199585-40.3300171-18.9299927
				c3.0900269,1.4299927,6.4299927,2.4100342,9.7800293,2.9299927c8.7799683,1.3500366,17.7299805,0.0200195,26.5100098-1.3200073
				c12.0100098-1.8199463,24.0100098-3.6499634,36.0199585-5.4699707c3.2300415,7.9799805,10,14.1099854,17.5300293,18.2799683
				c7.25,4,15.25,6.4000244,23.2000122,8.75c0.3099976,0.1000366,0.6199951,0.1900024,0.9299927,0.2800293
				c1.25,0.3800049,2.6799927,0.9099731,3.0899658,2.1500244c1.1500244,3.4899902-6.8399658,4.8499756-5.7799683,8.3799438
				c0.3099976,1.0300293,1.3599854,1.6400146,2.3300171,2.1100464
				C450.5999756,338.3399658,466.2199707,337.4400024,478.539978,330.6900024z"/>
			<path opacity="0.3" d="M437.3300171,319.2699585c-28.4299927,5.960022-72.710022-4.2399902-72.710022-4.2399902
				s-29.0200195-10.0199585-40.3300171-18.9299927c3.0900269,1.4299927,6.4299927,2.4100342,9.7800293,2.9299927
				c8.7799683,1.3500366,17.7299805,0.0200195,26.5100098-1.3200073
				c12.0100098-1.8199463,24.0100098-3.6499634,36.0199585-5.4699707c3.2300415,7.9799805,10,14.1099854,17.5300293,18.2799683
				C421.3800049,314.5199585,429.3800049,316.9199829,437.3300171,319.2699585z"/>
		</g>
	</g>
	<g id="neck">
		<g>
			<path fill="#FFB68D" d="M355.6300049,217.8299561c-1.6600342,4.5-5.1699829,9.1900024-9.6900024,11.8600464
				c-11.2600098,6.6499634-20.9000244,5.4699707-23.5700073,1.6399536
				c-2.6599731-3.8399658-0.1599731-8.3099976-0.1599731-8.3099976l-4.7700195-4.1799927l-3.4799805-3.0499878l2.0299683-2.7700195
				l15.4000244-21.1099854l14.0499878,12.4899902l2.2299805,1.9800415c0.8099976-0.1400146,1.5599976-0.2200317,2.25-0.2300415
				C356.6900024,205.9899902,357.8699951,211.7299805,355.6300049,217.8299561z"/>
			<path opacity="0.4" d="M355.6300049,217.8299561c-1.6600342,4.5-5.1699829,9.1900024-9.6900024,11.8600464
				c-11.2600098,6.6499634-20.9000244,5.4699707-23.5700073,1.6399536
				c-2.6599731-3.8399658-0.1599731-8.3099976-0.1599731-8.3099976l-4.7700195-4.1799927
				c0.9099731-0.7600098,0.1500244-2.9299927-1.4500122-5.8200073l15.4000244-21.1099854l14.0499878,12.4899902l2.2299805,1.9800415
				c0.8099976-0.1400146,1.5599976-0.2200317,2.25-0.2300415
				C352.5200195,209.6599731,354.4799805,213.6300049,355.6300049,217.8299561z"/>
		</g>
	</g>
	<g id="head">
		<g>
			<g>
				<g>
					<path fill="#ED4A2F" d="M270.835907,188.28508c0,0,2.1063843-11.4451904-0.4133606-12.8766022
						c-1.9154053-1.0810242-3.7792664,1.3075714-5.0927734,3.7012787c-0.4301758,0.7675323-0.796051,1.5273438-1.0970154,2.1753082
						c-1.2159424,2.6896057,1.0010681,7.0411224,2.5733643,8.3268738l2.1307068-0.7084045L270.835907,188.28508z"/>
					<path opacity="0.3" d="M268.9368286,188.9035339l1.8990784-0.618454c0,0,2.1063843-11.4451904-0.4133606-12.8766022
						c-1.9154053-1.0810242-3.7792664,1.3075714-5.0927734,3.7012787c2.2116699-1.0801544,4.005188,0.752594,3.6723022,5.375061
						C268.8913269,185.99086,268.880127,187.4798431,268.9368286,188.9035339z"/>
				</g>
				<g>
					<path fill="#ED4A2F" d="M271.4204712,198.5767059c0,0-0.9391174,18.9508362-2.3934937,19.3516235
						c-1.4544067,0.4007874-2.3086243-8.4706421-2.3086243-8.4706421s-2.3353577,2.2494354-3.2914124,2.1127014
						c-0.9560547-0.1367188,2.9682617-15.2602234,2.9682617-15.2602234L271.4204712,198.5767059z"/>
					<path opacity="0.3" d="M266.3983154,196.3065033c0,0-3.9310913,15.1231232-2.9718933,15.2648621
						c0.9592285,0.1416626,3.2926331-2.108963,3.2926331-2.108963s0.8588867,8.8626556,2.3102722,8.4613647
						c0.0623779-0.0171661,0.1269836-0.0751343,0.1889343-0.1618958c-0.9515686-3.4064941-0.6719971-12.7937927,0.1157227-13.804306
						c0.7088928-0.9164276,0.6259766-0.67099,1.8728638-1.6117859c0.1402283-2.2252502,0.2189636-3.7655487,0.2189636-3.7655487
						L266.3983154,196.3065033z"/>
					<path fill="#ED4A2F" d="M270.6119995,196.9565887c0,0-7.4007568,17.4712524-8.9042664,17.34729
						c-1.503479-0.1239777,0.7461243-8.7478485,0.7461243-8.7478485s-2.9666138,1.3088074-3.8172913,0.8515472
						s8.0365295-13.3078613,8.0365295-13.3078613L270.6119995,196.9565887z"/>
				</g>
				<path fill="#ED4A2F" d="M272.1861267,197.7290497c-1.5276794,2.9130554-6.286438,0.1698761-6.5782166-3.6870575
					c-0.291748-3.8569489,2.1083984-8.598526,5.4691467-6.958725S274.1322021,194.018158,272.1861267,197.7290497z"/>
				<path fill="#ED4A2F" d="M275.6356812,208.3627472c2.0182495-4.6918182-0.6451416-12.5026093-2.9227905-15.4087677
					c-1.1808777-1.5223389-2.4694824,0.7511597-3.1283569,3.898468c-0.5328064,2.5174103-0.6647644,5.5814972-0.0317383,7.7132874
					c1.1513367,3.8681183,3.0776062,7.0191193,4.8564453,5.6280975
					C274.823761,209.8659363,275.2431641,209.271698,275.6356812,208.3627472z"/>
				<path opacity="0.3" d="M275.6356812,208.3627472c2.0182495-4.6918182-0.6451416-12.5026093-2.9227905-15.4087677
					c-1.1808777-1.5223389-2.4694824,0.7511597-3.1283569,3.898468c0.8227844,0.5669098,2.4723206,1.8227081,4.3244629,6.2617493
					c1.3023071,3.1180878,1.0447693,5.496109,0.5002441,7.0796356
					C274.823761,209.8659363,275.2431641,209.271698,275.6356812,208.3627472z"/>
			</g>
			<g>
				<g>
					<g>
						<path fill="#FFB68D" d="M271.0040894,202.5815582c0.1590881,0.4289398,0.3267822,0.8388367,0.4996643,1.262558
							c1.0680847,2.6253204,2.3504333,5.2342072,3.8249207,7.7245636
							c7.6357422,13.0780792,24.7427979,27.3802643,39.8895569,24.0916748
							c1.7611084-0.3855591,3.5006104-0.9992828,5.1980591-1.8963318
							c15.6170044-8.2154694,24.6503296-27.223999,18.6194763-41.4481201
							c6.2004395-3.0549622,2.2185669-20.3680573-3.4302368-17.9897919
							c-2.8450623,1.1968536-3.4765015,3.3981628-3.340271,5.3776703
							c-8.899231-14.7025146-23.994751-30.8365784-49.8511353-13.4414673
							C267.1506042,176.5341492,266.3192444,190.077179,271.0040894,202.5815582z"/>
						<path opacity="0.3" d="M271.0040894,202.5815582c0.6290283-17.7032013,12.0196838-29.9636383,32.030365-28.0099792
							c22.1053772,2.1581573,38.408844,46.342392,12.1837769,61.0887756
							c1.7611084-0.3855591,3.5006104-0.9992828,5.1980591-1.8963318
							c15.6170044-8.2154694,24.6503296-27.223999,18.6194763-41.4481201
							c6.2004395-3.0549622,2.2185669-20.3680573-3.4302368-17.9897919
							c-2.8450623,1.1968536-3.4765015,3.3981628-3.340271,5.3776703
							c-8.899231-14.7025146-23.994751-30.8365784-49.8511353-13.4414673
							C267.1506042,176.5341492,266.3192444,190.077179,271.0040894,202.5815582z"/>
					</g>
					<path fill="#F7BC4B" d="M271.507782,203.8376007c-1.6188965-10.63237-0.0801086-25.6481323,19.3270874-34.6513519
						c18.9622498-8.793335,33.3061218,1.0282135,41.4953308,10.6190186
						c-8.8950195-14.7121735-23.9966125-30.9862366-49.9083862-13.5420074
						C266.6328735,176.8912354,266.2868958,190.9915924,271.507782,203.8376007z"/>
				</g>
				
					<ellipse transform="matrix(0.861872 -0.507126 0.507126 0.861872 -55.3073044 181.3577271)" fill="#363E4F" cx="305.2664795" cy="192.207016" rx="2.8343031" ry="3.9531071"/>
				
					<ellipse transform="matrix(0.861872 -0.507126 0.507126 0.861872 -64.4172821 173.3657532)" fill="#363E4F" cx="286.0405579" cy="204.9342957" rx="2.8343031" ry="3.9531071"/>
				<path fill="#363E4F" d="M304.7114868,179.6294861c-1.9685974-1.068512-4.3683167-1.3973541-6.6400452-0.8454132
					c-1.1363831,0.2761536-2.2030334,0.8777618-3.0501709,1.6725006c-0.8947144,0.7653809-1.4085999,1.8495331-1.7728882,2.8874207
					c0.7480469-0.8410339,1.4407349-1.6528015,2.3201599-2.2194061c0.856842-0.5718231,1.7728882-1.0440674,2.7823181-1.2704468
					c0.9950867-0.2631836,2.0401001-0.3658447,3.1029968-0.3921967
					C302.5162659,179.4580536,303.603363,179.4932709,304.7114868,179.6294861z"/>
				<path fill="#363E4F" d="M281.8190002,189.7726746c-1.5898438-0.3144073-3.4008789,0.0309601-4.8067627,1.2201233
					c-0.7026367,0.5977325-1.2687683,1.3710022-1.6401672,2.213974c-0.4135742,0.8317413-0.4792786,1.7856293-0.4251099,2.6595306
					c0.374054-0.8178101,0.6982422-1.5822449,1.1828613-2.2453613c0.4730225-0.6589966,0.9790955-1.2831421,1.609314-1.7946014
					C278.9608765,190.7596588,280.2414551,190.1233673,281.8190002,189.7726746z"/>
			</g>
		</g>
	</g>
	<g id="left_foot">
		<g>
			<path fill="#363E4F" d="M517.2868042,418.6218872c0,8.710022-5.4199524,14.3200073-14.3199768,6.5800171
				c-2.1199951-1.8499756-4.5-4.0300293-6.9599609-6.3499756c-7.8900146-7.4100342-16.7200317-16.1900024-21.2900391-19.5800171
				c-6-4.4500122-8.1300049-13.9299927-3.0999756-16.25c0,0,2.1699829-1.5700073,6.2600098-2.9000244
				c5.4499512-1.7699585,14.3299561-3.1300049,26.0599976,0.1900024c0,0,3.4799805,4.0599976,3.4799805,5.2200317
				l-7.7399902,0.5799561c0,0,6.9599609,4.6500244,9.289978,6.9700317
				C511.2868347,395.4019165,517.2868042,409.9119263,517.2868042,418.6218872z"/>
			<path fill="#FFB68D" d="M496.026825,418.8519287c-0.0100098,0-0.0100098,0-0.0199585,0
				c-7.8900146-7.4100342-16.7200317-16.1900024-21.2900391-19.5800171c-6-4.4500122-8.1300049-13.9299927-3.0999756-16.25
				c0,0,2.1699829-1.5700073,6.2600098-2.9000244c5.7099609,0.460022,11.0799561,3.9899902,16.5799561,12.5700073
				C502.1768494,404.7219238,504.526825,417.671875,496.026825,418.8519287z"/>
		</g>
	</g>
	<g id="left_calf">
		<g>
			<g>
				<path fill="#FFB68D" d="M486.5900269,391.8200073c0.0199585,0.4299927,0.0099487,0.8800049-0.0200195,1.3499756
					c-0.5900269,8.7700195-11.1099854,8.1900024-11.1099854,8.1900024s-43.9800415,1.4199829-79.8500366,3.7999878
					c-12.9699707,0.8500366-24.8699951,1.8400269-33.2600098,2.9199829
					c-31.5599976,4.0900269-36.8199463-17.8299561-36.5299683-29.5199585c0.0200195-0.7600098,0.0899658-1.5,0.2299805-2.2200317
					c1.9400024-10.4199829,15.8099976-17.0700073,39.2300415-17.0700073c9.9499512,0,23.2999878,1.6900024,37.2699585,4.1100464
					c0.0300293,0,0.0499878,0.0100098,0.0800171,0.0100098c6.6300049,1.1599731,13.3900146,2.4799805,20,3.8699951
					c26.4500122,5.5499878,50.3200073,12.1599731,52.539978,13.3499756
					C479.3099976,382.8200073,486.3400269,384.25,486.5900269,391.8200073z"/>
				<path opacity="0.3" d="M486.5900269,391.8200073c0.0199585,0.4299927,0.0099487,0.8800049-0.0200195,1.3499756
					c-0.5900269,8.7700195-11.1099854,8.1900024-11.1099854,8.1900024s-43.9800415,1.4199829-79.8500366,3.7999878
					c-12.9699707,0.8500366-24.8699951,1.8400269-33.2600098,2.9199829
					c-31.5599976,4.0900269-36.8199463-17.8299561-36.5299683-29.5199585c0.0200195-0.7600098,0.0899658-1.5,0.2299805-2.2200317
					c0.3699951,0.460022,0.7999878,0.8800049,1.2700195,1.2399902c3.1599731,2.4000244,7.3699951,2.7400513,11.3200073,2.9800415
					c20.6699829,1.2799683,41.3399658,2.3800049,62.0299683,3.2999878c1.25,0.0599976,2.6600342,0.0599976,3.5499878-0.8300171
					c0.9900513-0.9899902,0.8600464-2.5999756,0.6600342-3.9799805c-0.75-5.2200317-1.5-10.4400024-2.25-15.6599731
					c6.6300049,1.1599731,13.3900146,2.4799805,20,3.8699951c0.8099976,3.4599609,1.6300049,6.9099731,2.4500122,10.3599854
					c0.3399658,1.4299927,0.7199707,2.9400024,1.7799683,3.9400024c0.960022,0.8999634,2.2999878,1.2399902,3.5900269,1.539978
					C448.9099731,387.3999634,467.6900024,390.3200073,486.5900269,391.8200073z"/>
			</g>
			<g>
				<path fill="#363E4F" d="M396.7700195,403.6199951c-0.3800049,0.5200195-0.7700195,1.039978-1.1600342,1.539978
					c-12.9699707,0.8500366-24.8699951,1.8400269-33.2600098,2.9199829
					c-31.5599976,4.0900269-37.2171021-17.660553-36.927124-29.3505554
					c0.0200195-0.7600098,0.2790833-2.0040588,0.4190979-2.7240906
					c1.9400024-10.4199829,16.0429382-17.5080872,39.4629822-17.5080872c9.9499512,0,23.2750854,2.462738,37.2450562,4.882782
					c0.0400391,0.0799561,0.0800171,0.1599731,0.1099854,0.2399902
					C406.6699829,372.0299683,409.4000244,386.25,396.7700195,403.6199951z"/>
				<path opacity="0.3" d="M396.7700195,403.6199951c-0.3800049,0.5200195-0.7700195,1.039978-1.1600342,1.539978
					c-12.9699707,0.8500366-24.8699951,1.8400269-33.2600098,2.9199829
					c-31.5599976,4.0900269-36.8199463-17.8299561-36.5299683-29.5199585c0.0200195-0.7600098,0.0899658-1.5,0.2299805-2.2200317
					c0.3699951,0.460022,0.7999878,0.8800049,1.2700195,1.2399902c3.1599731,2.4000244,7.3699951,2.7400513,11.3200073,2.9800415
					c20.6699829,1.2799683,41.3399658,2.3800049,62.0299683,3.2999878c1.25,0.0599976,2.6600342,0.0599976,3.5499878-0.8300171
					c0.9900513-0.9899902,0.8600464-2.5999756,0.6600342-3.9799805c-0.7399902-5.1500244-1.4799805-10.289978-2.2200317-15.4299927
					C406.6699829,372.0299683,409.4000244,386.25,396.7700195,403.6199951z"/>
			</g>
		</g>
	</g>
	<g id="left_upper_arm">
		<g>
			<path opacity="0.3" d="M360.2323303,276.1896667c0,0,9.7861023,8.5841675,27.602356,6.8276367
				c17.8162231-1.7565308,25.6496887-9.3336182,25.6496887-9.3336182s-8.0843811-18.0180664-26.6534119-16.7633972
				C368.2619019,258.1749573,360.2323303,276.1896667,360.2323303,276.1896667z"/>
			<g>
				<path fill="#FFB68D" d="M405.3400269,291.2299805c-0.5700073,9.8800049-2.9200439,16.4500122-10.0300293,20.1799927
					c-0.7700195,0.4100342-1.6099854,0.7800293-2.5,1.1199951c-9.0800171,3.4400024-18.789978-2.2000122-21.2999878-12.8499756
					c-1.0800171-4.6099854-2.0499878-12.2200317-2.8099976-19.3599854
					c-0.9800415-9.3500366-1.5800171-17.9100342-1.5800171-17.9100342
					c22.5599976-19.7399902,37.5900269-2.8200073,37.5900269-2.8200073S405.9699707,280.2600098,405.3400269,291.2299805z"/>
				<path opacity="0.3" d="M405.3400269,291.2299805c-0.5700073,9.8800049-2.9200439,16.4500122-10.0300293,20.1799927
					c2.2600098-9.1199951,2.0700073-18.8399658-0.6599731-27.8300171c-1.1400146-3.7599487-3.3400269-7.9199829-7.2300415-8.5
					c-1.3399658-0.1999512-2.7000122,0.0800171-4.0299683,0.3900146c-5.0300293,1.1600342-9.960022,2.7900391-14.6900024,4.8500366
					c-0.9800415-9.3500366-1.5800171-17.9100342-1.5800171-17.9100342
					c22.5599976-19.7399902,37.5900269-2.8200073,37.5900269-2.8200073S405.9699707,280.2600098,405.3400269,291.2299805z"/>
			</g>
			<g>
				<path fill="#65A9DF" d="M413.4699707,273.6699829c-0.4299927-0.3699951-14.289978-12.210022-27.2399902-13.1400146
					c-13.1499634-0.9400024-26,15.6600342-26,15.6600342s-0.0100098-0.210022-0.0199585-0.6100464
					c-0.1600342-7.0699463-1.3500366-73.6799927,13.8099976-78.0199585
					c10.8299561-3.0900269,17.5999756,1.1799927,22.0799561,8.3499756c3.6800537,5.9000244,5.8099976,13.75,7.3600464,21.1000366
					C406.8800049,243.1699829,413.3800049,273.2099609,413.4699707,273.6699829z"/>
				<path opacity="0.3" d="M380.6500244,245.6300049c0.3299561-0.0100098,0.6599731-0.0100098,0.9899902,0
					C381.3099976,245.6599731,380.9799805,245.6499634,380.6500244,245.6300049z"/>
				<path opacity="0.3" d="M413.4699707,273.6699829c-0.4299927-0.3699951-14.289978-12.210022-27.2399902-13.1400146
					c-13.1499634-0.9400024-26,15.6600342-26,15.6600342s-0.0100098-0.210022-0.0199585-0.6100464
					c3.2099609-7.2299805,4.4699707-15.75,10.6300049-20.5799561c6.6799927-5.2300415,16.1900024-3.8599854,24.5099487-2.2399902
					c-3.1399536-4.3099976-8.3800049-7.0100098-13.7099609-7.1300049c3.4500122-0.1799927,6.5999756-2.6000366,8.4199829-5.6199951
					c1.9899902-3.2900391,2.6799927-7.1900024,3.2700195-10.9900513c1.1799927-7.6699829,2.1099854-15.3799438,2.7699585-23.1099854
					c3.6800537,5.9000244,5.8099976,13.75,7.3600464,21.1000366
					C406.8800049,243.1699829,413.3800049,273.2099609,413.4699707,273.6699829z"/>
			</g>
		</g>
	</g>
	<g id="left_arm">
		<g>
			<path fill="#FFB68D" d="M444.9000244,412c-2.5300293,0-14.5599976-4.6600342-14.5599976-4.6600342l-2.25,0.4200439
				c0,0,7.3499756,8.1699829,7.3499756,11.5499878s-5.9000244,6.6099854-8.8599854,5.0599976
				c-2.9500122-1.5400391-10.2399902-12.2299805-10.7999878-12.2299805c-0.5700073,0-3.3800049,1.2699585-3.3800049,1.2699585
				s2.2199707,15.3200073,1.6599731,17.2900391c-0.5599976,1.9699707-5.2000122,3.0999756-9.1400146,2.539978
				c-3.9400024-0.5700073-3.9400024-16.7399902-5.4899902-17.3099976c-1.5499878-0.5599976-3.1300049,0.4500122-3.1300049,0.4500122
				s-1.3399658,11.789978-3.7600098,14.7399902c-2.4099731,2.9500122-8.8399658,5.6300049-10.7199707-1.0700073
				c-1.5800171-5.6699829,2.3999634-17.8800049,2.0200195-20.8300171c-0.0599976-0.539978-0.2700195-0.7699585-0.6800537-0.6099854
				c-2.6799927,1.0700073-20.6299438,10.4500122-20.8999634,3.75s22.5100098-19.8300171,20.8999634-24.6599731
				c-1.5999756-4.8200073-6.3299561-43.6100464-10.3499756-63.25c-4.0299683-19.6400146,1-31.9900513,13.8400269-34.5
				c4.1799927-0.8200073,7.5-0.5100098,10.1799927,0.6499634c8.0700073,3.460022,10.2999878,14.6199951,12.5199585,25.9799805
				c2.960022,15.1200562,11.7400513,70.0900269,11.7400513,70.0900269s20.289978,14.7800293,25.2199707,17.4500122
				C451.2299805,406.789978,447.4299927,412,444.9000244,412z"/>
			<path opacity="0.3" d="M444.9000244,412c-2.5300293,0-14.5599976-4.6600342-14.5599976-4.6600342l-2.25,0.4200439
				c0,0,7.3499756,8.1699829,7.3499756,11.5499878s-5.9000244,6.6099854-8.8599854,5.0599976
				c-2.9500122-1.5400391-10.2399902-12.2299805-10.7999878-12.2299805c-0.5700073,0-3.3800049,1.2699585-3.3800049,1.2699585
				s2.2199707,15.3200073,1.6599731,17.2900391c-0.5599976,1.9699707-5.2000122,3.0999756-9.1400146,2.539978
				c-3.9400024-0.5700073-3.9400024-16.7399902-5.4899902-17.3099976c-1.5499878-0.5599976-3.1300049,0.4500122-3.1300049,0.4500122
				s-1.3399658,11.789978-3.7600098,14.7399902c-2.4099731,2.9500122-8.8399658,5.6300049-10.7199707-1.0700073
				c-1.5800171-5.6699829,2.3999634-17.8800049,2.0200195-20.8300171
				c5.5799561-2.9500122,11.1499634-5.9299927,16.1699829-9.7299805c1.1900024-0.9000244,2.3900146-1.9100342,2.9199829-3.2999878
				c0.3900146-1.0100098,0.3800049-2.1199951,0.3599854-3.210022c-0.3200073-24.2199707-1.1799927-48.4400024-2.5799561-72.6300049
				c-0.5700073-10-1.2600098-20.0999756-3.8800049-29.75c8.0700073,3.460022,10.2999878,14.6199951,12.5199585,25.9799805
				c2.960022,15.1200562,11.7400513,70.0900269,11.7400513,70.0900269s20.289978,14.7800293,25.2199707,17.4500122
				C451.2299805,406.789978,447.4299927,412,444.9000244,412z"/>
		</g>
	</g>
</g>
<g id="Layer_x5F_Book">
	<g>
		<g>
			<path fill="#F7BC4B" d="M387.8596191,508.6305237c0,0,56.5784912-37.7918091,125.1717529-56.1416016l-0.3101807-8.3875427
				c0,0-67.9242554,11.0219421-126.0663452,51.2531738L387.8596191,508.6305237z"/>
			<path opacity="0.5" d="M387.8596191,508.6305237c0,0,56.5784912-37.7918091,125.1717529-56.1416016l-0.3101807-8.3875427
				c0,0-67.9242554,11.0219421-126.0663452,51.2531738L387.8596191,508.6305237z"/>
			<path fill="#F7BC4B" d="M57.2843781,443.1298523l1.387764,7.2293091c0,0,93.7842331-11.7756042,146.3538818,5.0466919
				c0,0-0.2102814,5.8877869,7.780304,6.098053c7.9905853,0.2102966,8.8317108-4.8363953,8.8317108-4.8363953
				s105.0109863,4.3212585,166.2215881,51.9630127l-1.2047729-13.2759705c0,0-34.381897-40.295166-169.4704437-52.6562195
				C217.1844025,442.6983337,116.3513947,417.0733948,57.2843781,443.1298523z"/>
			<path opacity="0.3" d="M57.2843781,443.1298523l1.387764,7.2293091c0,0,93.7842331-11.7756042,146.3538818,5.0466919
				c0,0-0.2102814,5.8877869,7.780304,6.098053c7.9905853,0.2102966,8.8317108-4.8363953,8.8317108-4.8363953
				s105.0109863,4.3212585,166.2215881,51.9630127l-1.2047729-13.2759705c0,0-34.381897-40.295166-169.4704437-52.6562195
				C217.1844025,442.6983337,116.3513947,417.0733948,57.2843781,443.1298523z"/>
			<path fill="#F7BC4B" d="M57.2843781,443.1298523c0,0,69.9170685-12.9807434,150.7227631,6.0099792
				c0,0-0.4626923,5.6252136,4.420166,5.7995911c4.8828735,0.174408,5.5475616-4.8028259,5.5475616-4.8028259
				s93.8668671-2.3152466,168.6799774,45.2179565c0,0,61.9998474-35.1332397,126.0663452-51.2531738
				c0,0-102.9197388-36.37323-233.9460449-20.2532959c0,0-52.4931946-21.4932556-102.9197083-23.9732666
				C175.8554382,399.8748169,106.5261917,411.9850769,57.2843781,443.1298523z"/>
		</g>
		<g>
			<path fill="#EC4A2F" d="M230.2684021,372.3883667c0,0-80.7385712-0.3322754-135.8933105,28.9064026l120.2772141,33.5579834
				l61.4676361-25.2515564C276.1199341,409.6011963,265.8199463,385.6786499,230.2684021,372.3883667z"/>
			<path opacity="0.6" d="M230.2684021,372.3883667c0,0-80.7385712-0.3322754-135.8933105,28.9064026l120.2772141,33.5579834
				l61.4676361-25.2515564C276.1199341,409.6011963,265.8199463,385.6786499,230.2684021,372.3883667z"/>
			<path fill="#363E4F" d="M208.0071411,449.1398315l11.0106812-3.7326965c0,0,5.8629303-13.4468994-4.3655243-10.5543823
				C204.4238281,437.7453003,208.0071411,449.1398315,208.0071411,449.1398315z"/>
			<path fill="#ED4A2F" d="M94.3750839,401.2947693l-6.9774094,31.2322083c0,0,62.1321564-13.954834,120.6094666,16.612854
				c0,0,0-8.6387024,6.6451569-14.2870789C214.652298,434.8527527,174.7813873,386.3431702,94.3750839,401.2947693z"/>
			<path opacity="0.3" d="M94.3750839,401.2947693l-6.9774094,31.2322083c0,0,62.1321564-13.954834,120.6094666,16.612854
				c0,0,0-8.6387024,6.6451569-14.2870789C214.652298,434.8527527,174.7813873,386.3431702,94.3750839,401.2947693z"/>
			<path opacity="0.3" d="M100.5560303,408.8823242c0,0,30.4960938-4.8577881,60.7223053,2.9686279
				C161.2783356,411.8509521,129.5598602,406.5530396,100.5560303,408.8823242z"/>
			<path opacity="0.3" d="M100.6936722,417.7810364c0,0,59.3209915-10.228302,105.2134933,20.9332581
				C205.9071655,438.7142944,167.9075165,412.1452942,100.6936722,417.7810364z"/>
		</g>
		<g>
			<path fill="#EC4A2F" d="M214.652298,434.8527527l61.4676361-25.2515564c0,0,105.9901428-33.8902588,208.6577148,0.3322449
				l-102.0030518,40.5354309L214.652298,434.8527527z"/>
			<path opacity="0.6" d="M214.652298,434.8527527l61.4676361-25.2515564c0,0,105.9901428-33.8902588,208.6577148,0.3322449
				l-102.0030518,40.5354309L214.652298,434.8527527z"/>
			<path fill="#ED4A2F" d="M214.652298,434.8527527c0,0,2.6580505,3.6548462,3.3225708,15.283844
				c0,0,75.4224396-17.6096191,170.1158295,32.5612488l-3.3225708-45.851532
				C384.7681274,436.8463135,304.6940613,400.630249,214.652298,434.8527527z"/>
			<path opacity="0.3" d="M214.652298,434.8527527c0,0,2.6580505,3.6548462,3.3225708,15.283844
				c0,0,75.4224396-17.6096191,170.1158295,32.5612488l-3.3225708-45.851532
				C384.7681274,436.8463135,304.6940613,400.630249,214.652298,434.8527527z"/>
			<path opacity="0.3" d="M224.1304626,440.562439c0,0,74.5326233-18.8320923,155.9614868,10.8748779
				C380.0919495,451.4373169,318.5561218,417.221283,224.1304626,440.562439z"/>
			<path opacity="0.3" d="M298.7369385,442.1196594c0,0,45.2620239,2.3822021,80.9951782,22.3927917
				C379.7321167,464.5124512,331.6114502,445.9312134,298.7369385,442.1196594z"/>
			<path fill="#EC4A2F" d="M388.0906982,482.6978455c0,0,57.1482849-30.8999634,105.3256226-42.1967163
				c0,0-5.6483765-22.9257507-8.6386719-30.567688c0,0-46.5160522,7.6419373-100.0095215,26.9128723L388.0906982,482.6978455z"/>
			<path opacity="0.5" d="M388.0906982,482.6978455c0,0,57.1482849-30.8999634,105.3256226-42.1967163
				c0,0-5.6483765-22.9257507-8.6386719-30.567688c0,0-46.5160522,7.6419373-100.0095215,26.9128723L388.0906982,482.6978455z"/>
			<path opacity="0.3" d="M392.8342896,463.7977905c0,0,50.7411194-23.3456726,94.3356018-30.96875
				C487.1698914,432.8290405,443.3371887,434.7348022,392.8342896,463.7977905z"/>
			<path opacity="0.3" d="M393.3835754,450.1365051c0,0,43.118042-20.0105896,88.6182861-26.2043457
				C482.0018616,423.9321594,437.2162781,425.5997009,393.3835754,450.1365051z"/>
		</g>
	</g>
</g>
<g id="Layer_x5F_Right_Page">
	<g>
		<path fill="#ED4A2F" d="M276.1199951,409.5999756l-61.4699707,25.25c-34.7300415-48-85.6199951-60.0599976-94.5300293-61.8499756
			c-0.2700195-0.0499878-0.5-0.0900269-0.6900024-0.1300049c-0.4400024-0.0800171-0.6699829-0.1199951-0.6699829-0.1199951
			c0.1499634-0.0599976,0.2999878-0.1300049,0.4500122-0.1900024c51.6399536-21.9700317,111.8200073-26.5,111.8200073-26.5
			c17.8799438,11.2799683,29.1099854,26.9699707,35.8899536,39.9199829
			C273.8300171,399.2099609,276.1199951,409.5999756,276.1199951,409.5999756z"/>
		<g>
			<path fill="#F7BC4B" d="M233.8099976,416.7099609l-18.039978,7.210022
				c-21.710022-35.5800171-67.1400146-53.0700073-67.1400146-53.0700073
				c12.0299683-3.8900146,23.960022-6.9199829,34.7700195-9.2700195
				C193.3599854,366.7799683,223.6900024,384.8599854,233.8099976,416.7099609z"/>
			<path fill="#F7BC4B" d="M247.9000244,371.2999878l-30.6900024,8.7999878
				c-6.710022-7.2099609-15.2600098-14.3099976-26.0800171-20.1099854
				c21.5800171-4.2700195,37.0999756-5.6199951,37.0999756-5.6199951
				C235.8800049,358.6199951,242.4500122,364.7699585,247.9000244,371.2999878z"/>
			<path fill="#F7BC4B" d="M267.0300293,403.4199829l-28.5200195,11.4099731
				c-1.7800293-5.1299438-6.8300171-17.5599976-17.5200195-30.4299927l30.1400146-9.0099487
				C261.5900269,389.2999878,267.0300293,403.4199829,267.0300293,403.4199829z"/>
		</g>
		<path opacity="0.5" fill="#FFFFFF" d="M266.9199829,385.9799805c-12.4500122-2.0200195-24.5899658-6.5200195-36.8999634-9.6300049
			c-35.710022-9.0100098-73.1900024-6.3699951-109.9000244-3.3499756c-0.1900024,0.0199585-0.3699951,0.0299683-0.5599976,0.0499878
			l-0.1300049-0.1799927l-0.2199707-0.3099976c51.6399536-21.9700317,111.8200073-26.5,111.8200073-26.5
			c2.7799683,1.7600098,5.3999634,3.6199951,7.8699951,5.5599976c1.2299805,0.9599609,2.4099731,1.9400024,3.5599976,2.9400024
			C253.9000244,364.4899902,261.7199707,376.039978,266.9199829,385.9799805z"/>
		<path opacity="0.3" d="M242.460022,354.5599976c-2.5,1.8200073-8.2600098,5.6799927-9.9700317,3.9400024
			c0,0,3.8500366-4.5400391,6.4100342-6.8800049C240.1300049,352.5799561,241.3099976,353.5599976,242.460022,354.5599976z"/>
		<g>
			<path fill="#FFB68D" d="M251.3200073,346.1900024c0,3.1599731-1.1400146,5.5599976-5.1799927,5.8099976
				c-4.0400391,0.2600098-5.1799927-0.5-5.1799927-0.5s-3.4100342,4.289978-6.4400024,6.8200073
				c-1.3300171,1.0999756-2.8000488,1.4599609-3.8300171,1.1499634c-1.3400269-0.3900146-1.9500122-1.8900146-0.5999756-4.3099976
				c2.4099731-4.289978,2.6599731-11.4899902,5.8199463-12.6300049c3.1500244-1.1399536,11.1100464-2.7799683,11.1100464-2.7799683
				s3.5999756,2.7399902,4.2099609,5.6300049C251.289978,345.6499634,251.3200073,345.9199829,251.3200073,346.1900024z"/>
			<path opacity="0.3" d="M251.3200073,346.1900024c0,3.1599731-1.1400146,5.5599976-5.1799927,5.8099976
				c-4.0400391,0.2600098-5.1799927-0.5-5.1799927-0.5s-3.4100342,4.289978-6.4400024,6.8200073
				c-1.3300171,1.0999756-2.8000488,1.4599609-3.8300171,1.1499634c5.8800049-1.7000122,9.6400146-11.8299561,9.6400146-11.8299561
				c7.4099731,0.8199463,10.3599854-1.7200317,10.8999634-2.2600098
				C251.289978,345.6499634,251.3200073,345.9199829,251.3200073,346.1900024z"/>
		</g>
	</g>
</g>
<g id="Layer_x5F_Left_Page">
	<g>
		<path fill="#28ABE2" d="M214.6500244,434.8499756c0,0,0.039978-0.0200195,0.1300049-0.0599976L214.6500244,434.8499756z"/>
		<path fill="#28ABE2" d="M214.7800293,434.789978c0.7699585-0.3699951,5.0799561-2.3800049,12.2699585-5.0299683
			L214.7800293,434.789978z"/>
		<path fill="#ED4A2F" d="M474.2700195,402.3800049c-29.3000488,0.7399902-69.4800415,14.3200073-83.7000122,19.4599609
			c-3.3400269,1.210022-5.25,1.9500122-5.25,1.9500122c-69.6900024-21.1199951-132.5-3.5200195-158.2700195,5.9700317
			l49.0700073-20.1600342c17.0499878-6.1199951,34.2399902-10.2999878,51-13.039978
			C405.4500122,383.7399902,474.2700195,402.3800049,474.2700195,402.3800049z"/>
		<path fill="#F7BC4B" d="M379.25,396.3800049c-15.0999756,3.7799683-29.5900269,9.2399902-37.1500244,12.2699585
			c-35.8099976-2.0199585-66.1999512,4.7300415-66.1999512,4.7300415
			C310.9299927,401.3200073,348.3300171,397.2000122,379.25,396.3800049z"/>
		<path fill="#F7BC4B" d="M447.5800171,399.6499634c-27.6500244,1.7900391-64.460022,15.7200317-64.460022,15.7200317
			c-11.7000122-3.4500122-23.7999878-5.3900146-35.4699707-6.3300171
			c8.3399658-3.3200073,24.0099487-9.1400146,39.8199463-12.7999878
			C422.6400146,395.9299927,447.5800171,399.6499634,447.5800171,399.6499634z"/>
		<path opacity="0.5" fill="#FFFFFF" d="M474.2700195,402.3800049
			c-29.3000488,0.7399902-69.4800415,14.3200073-83.7000122,19.4599609
			c-18.960022-12.8899536-40.8099976-21.5599976-63.4500122-25.2799683
			C405.4500122,383.7399902,474.2700195,402.3800049,474.2700195,402.3800049z"/>
	</g>
</g>
</svg>
